HIERARCHY
ROOT Hips
{
	OFFSET 0.000000 0.000000 0.000000
	CHANNELS 6 Xposition Yposition Zposition Zrotation Yrotation Xrotation 
	JOINT LHipJoint
	{
		OFFSET 0.000000 0.000000 0.000000
		CHANNELS 3 Zrotation Yrotation Xrotation
		JOINT LeftUpLeg
		{
			OFFSET 1.363060 -1.794630 0.839290
			CHANNELS 3 Zrotation Yrotation Xrotation
			JOINT LeftLeg
			{
				OFFSET 2.448110 -6.726130 0.000000
				CHANNELS 3 Zrotation Yrotation Xrotation
				JOINT LeftFoot
				{
					OFFSET 2.562200 -7.039590 0.000000
					CHANNELS 3 Zrotation Yrotation Xrotation
					JOINT LeftToeBase
					{
						OFFSET 0.157640 -0.433110 2.322550
						CHANNELS 3 Zrotation Yrotation Xrotation
						End Site
						{
							OFFSET 0.000000 0.000000 0.000000
						}
					}
				}
			}
		}
	}
	JOINT RHipJoint
	{
		OFFSET 0.000000 0.000000 0.000000
		CHANNELS 3 Zrotation Yrotation Xrotation
		JOINT RightUpLeg
		{
			OFFSET -1.305520 -1.794630 0.839290
			CHANNELS 3 Zrotation Yrotation Xrotation
			JOINT RightLeg
			{
				OFFSET -2.542530 -6.985550 0.000000
				CHANNELS 3 Zrotation Yrotation Xrotation
				JOINT RightFoot
				{
					OFFSET -2.568260 -7.056230 0.000000
					CHANNELS 3 Zrotation Yrotation Xrotation
					JOINT RightToeBase
					{
						OFFSET -0.164730 -0.452590 2.363150
						CHANNELS 3 Zrotation Yrotation Xrotation
						End Site
						{
							OFFSET 0.000000 0.000000 0.000000
						}
					}
				}
			}
		}
	}
}
MOTION
Frames: 30
Frame Time: 0.008333
2.923937 15.931146 1.196501 179.090033 -77.779866 -133.090188 -8.728032 0.857095 -2.224726 -26.065985 6.626563 -76.459600 -4.011535 5.078779 48.141439 3.659081 11.885361 -19.712125 -2.089000 0.000001 -36.089300 8.457741 2.301705 1.257460 8.115709 -3.507519 -77.944001 3.665743 -4.947767 43.554440 0.497083 4.710948 -7.256448 0.111300 -0.000000 -69.098900
2.928940 15.919819 1.198006 178.882410 -77.931088 -132.939841 -8.720215 0.820911 -2.223607 -25.950135 6.488865 -76.500960 -3.959783 5.091382 48.425409 3.680515 11.976487 -19.793506 -2.122200 -0.000000 -36.102100 8.465572 2.315613 1.200151 8.149612 -3.653777 -78.043509 3.647684 -5.006172 43.907264 0.485498 4.704318 -7.426394 0.107401 0.000000 -69.165800
2.934188 15.908411 1.199209 178.669812 -78.099319 -132.795127 -8.712545 0.781285 -2.223722 -25.823105 6.353515 -76.534061 -3.906279 5.103208 48.715127 3.700340 12.063230 -19.873432 -2.155000 0.000000 -36.122600 8.473320 2.328968 1.136547 8.192933 -3.811321 -78.130010 3.629439 -5.066024 44.270448 0.472609 4.694297 -7.606125 0.103000 -0.000000 -69.235700
2.939597 15.896966 1.200199 178.452682 -78.287056 -132.656335 -8.705615 0.738274 -2.224650 -25.684019 6.220056 -76.557718 -3.851182 5.114062 49.008960 3.718222 12.144203 -19.951251 -2.186900 -0.000000 -36.151199 8.480565 2.341675 1.066133 8.246669 -3.981613 -78.201309 3.611254 -5.127018 44.642051 0.458271 4.679922 -7.794726 0.098000 0.000000 -69.307200
2.945252 15.885662 1.201085 178.229460 -78.496180 -132.524992 -8.699913 0.691691 -2.226393 -25.531407 6.089012 -76.569303 -3.794675 5.123691 49.304552 3.733776 12.217919 -20.026684 -2.217600 0.000000 -36.187300 8.486741 2.353942 0.987779 8.311963 -4.166613 -78.253415 3.593276 -5.188721 45.019736 0.442365 4.660319 -7.990965 0.092500 -0.000000 -69.379700
2.951032 15.874598 1.201888 177.998780 -78.728741 -132.399702 -8.695983 0.641539 -2.228691 -25.364333 5.959959 -76.566455 -3.736948 5.131718 49.599332 3.746726 12.283418 -20.098742 -2.246800 0.000000 -36.230800 8.491459 2.365628 0.900820 8.389795 -4.367557 -78.283104 3.575686 -5.250690 45.401044 0.424688 4.634162 -8.193617 0.086500 0.000000 -69.451300
2.956892 15.863855 1.202659 177.752440 -78.987650 -132.271860 -8.694179 0.587787 -2.230787 -25.181940 5.829888 -76.547035 -3.678054 5.137507 49.890589 3.756993 12.340314 -20.166633 -2.274100 0.000000 -36.283101 8.494600 2.376766 0.805239 8.478698 -4.586108 -78.289796 3.558379 -5.312789 45.784922 0.404894 4.599519 -8.401757 0.080000 -0.000001 -69.518500
2.962896 15.853604 1.203373 177.480750 -79.274304 -132.134040 -8.694780 0.530427 -2.232813 -24.984388 5.698783 -76.507495 -3.618278 5.140586 50.174981 3.764263 12.387754 -20.229013 -2.298900 0.000001 -36.342700 8.495899 2.387477 0.700266 8.578522 -4.824763 -78.269870 3.541551 -5.374569 46.168145 0.382869 4.555468 -8.614161 0.072899 -0.000000 -69.580700
2.968971 15.844001 1.204025 177.171802 -79.590493 -131.974164 -8.698028 0.469449 -2.234575 -24.771613 5.565150 -76.444171 -3.557866 5.140240 50.448879 3.768345 12.425169 -20.284760 -2.320800 -0.000001 -36.410900 8.495356 2.397705 0.585648 8.687793 -5.085130 -78.220680 3.525170 -5.435665 46.548375 0.358409 4.500604 -8.829451 0.065500 0.000000 -69.636500
2.975164 15.835181 1.204560 176.806428 -79.937367 -131.774384 -8.703962 0.404955 -2.235754 -24.544609 5.426702 -76.353633 -3.497014 5.135698 50.708384 3.769148 12.452576 -20.332006 -2.339500 -0.000001 -36.487700 8.493039 2.407521 0.461538 8.804122 -5.369446 -78.141188 3.509281 -5.495827 46.922918 0.331334 4.433668 -9.046565 0.057799 0.000000 -69.684700
2.981544 15.827440 1.204916 176.369008 -80.313890 -131.522229 -8.712576 0.337017 -2.237758 -24.305764 5.286926 -76.230178 -3.436398 5.126565 50.949532 3.766101 12.468291 -20.369749 -2.354400 -0.000000 -36.569200 8.488936 2.417048 0.327155 8.926004 -5.679340 -78.025087 3.494011 -5.554273 47.287108 0.301694 4.354379 -9.263817 0.050000 -0.000000 -69.727300
2.988053 15.820800 1.204964 175.824187 -80.721754 -131.179814 -8.723766 0.265823 -2.238947 -24.056313 5.139242 -76.072330 -3.376046 5.111653 51.167625 3.759650 12.474199 -20.395569 -2.365100 0.000000 -36.661500 8.483509 2.425896 0.184317 9.048458 -6.015180 -77.875333 3.479106 -5.610976 47.639540 0.269000 4.260047 -9.480743 0.042100 0.000000 -69.762100
2.994765 15.815558 1.204611 175.145333 -81.157997 -130.724101 -8.737464 0.191560 -2.240932 -23.799895 4.988312 -75.874774 -3.316756 5.090731 51.358901 3.749171 12.468365 -20.408474 -2.371100 0.000000 -36.759800 8.476791 2.434115 0.032823 9.169027 -6.377765 -77.686390 3.464715 -5.665133 47.975276 0.233404 4.150841 -9.695774 0.034400 0.000000 -69.792100
3.001688 15.811825 1.203712 174.288140 -81.620977 -130.110410 -8.753624 0.114511 -2.243474 -23.539680 4.832960 -75.634661 -3.258928 5.063109 51.519194 3.734665 12.451172 -20.406366 -2.372100 -0.000001 -36.866200 8.469083 2.441259 -0.125944 9.283551 -6.766672 -77.457557 3.450735 -5.716312 48.291219 0.194618 4.024965 -9.908107 0.026900 0.000000 -69.817900
3.008788 15.809762 1.202134 173.202029 -82.107265 -129.289017 -8.772254 0.034893 -2.247097 -23.279320 4.675110 -75.348992 -3.203165 5.028469 51.645142 3.715914 12.421927 -20.388282 -2.367800 -0.000000 -36.978000 8.460551 2.446918 -0.290851 9.388187 -7.180913 -77.186499 3.437166 -5.763908 48.583596 0.152637 3.881911 -10.116645 0.020000 -0.000000 -69.841200
3.016136 15.809449 1.199746 171.812026 -82.614585 -128.185203 -8.793303 -0.047232 -2.250845 -23.021966 4.512202 -75.018149 -3.149605 4.986346 51.734039 3.693103 12.381450 -20.352202 -2.357900 -0.000001 -37.098600 8.451331 2.450306 -0.459630 9.478841 -7.618508 -76.876016 3.423756 -5.807809 48.850971 0.107035 3.719303 -10.321024 0.013600 -0.000001 -69.861100
3.023588 15.810911 1.196439 170.029547 -83.138675 -126.708066 -8.816955 -0.131828 -2.254270 -22.770681 4.344477 -74.642179 -3.098601 4.936530 51.783876 3.666185 12.329451 -20.296970 -2.341999 -0.000000 -37.231000 8.441610 2.450333 -0.630125 9.551863 -8.076585 -76.526395 3.410481 -5.847627 49.090718 0.057590 3.535811 -10.520836 0.008000 0.000000 -69.878400
3.031126 15.814282 1.192114 167.741720 -83.672940 -124.746218 -8.843546 -0.219078 -2.258069 -22.528777 4.176287 -74.219054 -3.050685 4.879129 51.793073 3.634835 12.264687 -20.222380 -2.320100 0.000000 -37.368300 8.431237 2.445967 -0.801368 9.605904 -8.553758 -76.135288 3.397620 -5.882908 49.299337 0.004543 3.332241 -10.714942 0.003400 0.000000 -69.894700
3.038763 15.819592 1.186747 164.787984 -84.211623 -122.140053 -8.873296 -0.309735 -2.261659 -22.297892 4.008156 -73.749689 -3.005831 4.814086 51.761231 3.599063 12.187183 -20.127469 -2.292100 -0.000000 -37.511600 8.420090 2.435520 -0.971811 9.640527 -9.048178 -75.703653 3.385353 -5.913657 49.475189 -0.052107 3.108378 -10.902840 -0.000200 -0.000000 -69.910200
3.046242 15.826692 1.180231 160.932975 -84.748070 -118.648327 -8.905911 -0.404851 -2.262988 -22.079092 3.835716 -73.238765 -2.963754 4.740997 51.688833 3.559237 12.097686 -20.011434 -2.258100 0.000000 -37.666100 8.408935 2.416528 -1.138253 9.653419 -9.556349 -75.237355 3.373631 -5.940423 49.618630 -0.112776 2.862311 -11.084770 -0.002500 0.000000 -69.921799
3.053641 15.835577 1.172580 155.851768 -85.272688 -113.947494 -8.940238 -0.506390 -2.261409 -21.872384 3.658131 -72.688260 -2.923992 4.659559 51.577519 3.515365 11.996053 -19.873564 -2.217900 -0.000000 -37.832900 8.398878 2.386419 -1.299164 9.645840 -10.077453 -74.739133 3.362701 -5.963945 49.729031 -0.177478 2.593855 -11.260086 -0.003600 -0.000001 -69.928700
3.060739 15.846240 1.163840 149.122609 -85.770774 -107.614546 -8.974231 -0.616083 -2.256955 -21.676592 3.477610 -72.098069 -2.886391 4.569437 51.428793 3.467300 11.880994 -19.714708 -2.172100 0.000000 -38.004700 8.392219 2.342281 -1.454009 9.622361 -10.612559 -74.207580 3.353589 -5.984883 49.803476 -0.245466 2.306390 -11.427914 -0.003199 -0.000000 -69.932000
3.067468 15.858571 1.154062 140.192604 -86.223404 -99.094369 -9.001852 -0.734703 -2.248552 -21.487788 3.290803 -71.473154 -2.850061 4.469999 51.246334 3.415466 11.752885 -19.534935 -2.120800 -0.000001 -38.184099 8.394855 2.282427 -1.600828 9.587670 -11.160799 -73.646340 3.346736 -6.004681 49.841811 -0.316703 1.999801 -11.588120 -0.001400 -0.000000 -69.929500
3.073791 15.872494 1.143346 128.563889 -86.600720 -87.888856 -9.013086 -0.857454 -2.235955 -21.299559 3.099142 -70.819333 -2.814429 4.361607 51.033969 3.360356 11.611715 -19.334833 -2.064401 -0.000000 -38.370900 8.416341 2.210558 -1.738333 9.550049 -11.719019 -73.055136 3.342461 -6.023935 49.843155 -0.390637 1.675614 -11.739488 0.001800 0.000000 -69.920700
3.079578 15.887911 1.131803 114.273337 -86.862538 -74.032193 -8.997357 -0.969077 -2.218308 -21.102374 2.909615 -70.147563 -2.779666 4.247149 50.794129 3.303017 11.458777 -19.116632 -2.003199 -0.000000 -38.564400 8.466531 2.140225 -1.866448 9.521109 -12.277061 -72.430219 3.340666 -6.040753 49.807306 -0.466219 1.337180 -11.879961 0.006401 -0.000000 -69.905401
3.084767 15.904823 1.119633 98.514310 -86.969066 -58.717759 -8.954740 -1.047790 -2.193942 -20.889890 2.735916 -69.469083 -2.747164 4.132779 50.525767 3.244449 11.296318 -18.884170 -1.937900 0.000000 -38.758900 8.544504 2.091852 -1.988318 9.510095 -12.820914 -71.765629 3.340511 -6.049746 49.735963 -0.541822 0.990701 -12.005654 0.012100 0.000000 -69.884900
3.079762 15.916894 1.127222 61.657707 -86.808145 -22.068260 -8.797041 -1.134217 -1.810713 -19.922163 1.556847 -69.215536 -2.575903 3.936675 50.393049 3.230260 11.286303 -18.471505 -1.826900 -0.000000 -39.153700 8.712798 1.963377 -2.198944 10.355413 -13.979314 -71.346006 3.483603 -6.149892 49.562094 -0.607829 0.704206 -12.209529 0.022200 0.000000 -69.770400
3.084024 15.936571 1.113967 52.921244 -86.442584 -13.795364 -8.770118 -1.089019 -1.757681 -19.703069 1.449928 -68.553807 -2.559608 3.854404 50.046206 3.171565 11.121962 -18.220271 -1.755100 0.000000 -39.363100 8.772674 2.017363 -2.331305 10.357685 -14.455671 -70.605275 3.475006 -6.111684 49.445560 -0.678837 0.363917 -12.292131 0.029999 0.000000 -69.739300
3.087585 15.957411 1.100505 46.393266 -85.973625 -7.737027 -8.774500 -1.059192 -1.691797 -19.495341 1.327864 -67.870749 -2.544523 3.768706 49.667022 3.110915 10.953031 -17.953609 -1.680500 0.000000 -39.571600 8.804185 2.047776 -2.457921 10.349925 -14.948619 -69.856471 3.469044 -6.068994 49.300434 -0.749178 0.023199 -12.358709 0.038300 0.000000 -69.704700
3.090306 15.979332 1.087065 41.389163 -85.429830 -3.205612 -8.796647 -1.042913 -1.614109 -19.291935 1.190581 -67.171063 -2.529273 3.677859 49.260232 3.048567 10.778899 -17.672040 -1.603600 0.000000 -39.784100 8.820434 2.055492 -2.577122 10.340935 -15.456799 -69.099552 3.467035 -6.024124 49.123502 -0.818624 -0.317299 -12.408742 0.046599 0.000000 -69.667400
